<svg xmlns="http://www.w3.org/2000/svg" width="120" height="120" viewBox="0 0 60 60"><defs><style>.cls-1{fill-rule:evenodd;filter:url(#filter)}</style><filter id="filter" x="0" y="0" width="60" height="60" filterUnits="userSpaceOnUse"><feFlood result="flood" flood-color="#bdbdbd"/><feComposite result="composite" operator="in" in2="SourceGraphic"/><feBlend result="blend" in2="SourceGraphic"/></filter></defs><path id="Forma_1" data-name="Forma 1" class="cls-1" d="M30 0a30 30 0 1 0 30 30A30.034 30.034 0 0 0 30 0zm0 58a28 28 0 1 1 28-28 28.032 28.032 0 0 1-28 28zm0-52a1 1 0 0 0-1 1v23H14a1 1 0 0 0 0 2h16a1 1 0 0 0 1-1V7a1 1 0 0 0-1-1z"/></svg>