<svg xmlns="http://www.w3.org/2000/svg" width="304" height="408"><defs><style>.cls-1{fill-rule:evenodd;filter:url(#filter)}</style><filter id="filter" x="0" y="0" width="304" height="408" filterUnits="userSpaceOnUse"><feFlood result="flood" flood-color="#76a2e3"/><feComposite result="composite" operator="in" in2="SourceGraphic"/><feBlend result="blend" in2="SourceGraphic"/></filter></defs><path id="Forma_1" data-name="Forma 1" class="cls-1" d="M35.678 388.325A20.531 20.531 0 0 0 56.186 408h191.627a20.532 20.532 0 0 0 20.51-19.676L282.007 99.35H21.993zm159.671-217.2a8.338 8.338 0 0 1 8.336-8.339h13.337a8.338 8.338 0 0 1 8.336 8.339v165.1a8.338 8.338 0 0 1-8.336 8.34h-13.337a8.338 8.338 0 0 1-8.336-8.34v-165.1zm-58.353 0a8.338 8.338 0 0 1 8.337-8.339h13.335a8.338 8.338 0 0 1 8.332 8.34v165.1a8.338 8.338 0 0 1-8.336 8.34h-13.331a8.338 8.338 0 0 1-8.337-8.34v-165.1zm-58.355 0a8.338 8.338 0 0 1 8.337-8.339h13.336a8.339 8.339 0 0 1 8.337 8.339v165.1a8.339 8.339 0 0 1-8.337 8.34H86.978a8.338 8.338 0 0 1-8.337-8.34v-165.1zM291.119 21.017h-88.4V4.3a4.3 4.3 0 0 0-4.3-4.3h-92.837a4.3 4.3 0 0 0-4.3 4.3v16.716H12.879A12.883 12.883 0 0 0 0 33.9v40.481h304V33.9a12.882 12.882 0 0 0-12.881-12.883z"/></svg>