<svg xmlns="http://www.w3.org/2000/svg" width="611.656" height="470.625"><defs><style>.cls-1{fill-rule:evenodd;filter:url(#filter)}</style><filter id="filter" x="0" y=".375" width="611.656" height="470.625" filterUnits="userSpaceOnUse"><feFlood result="flood" flood-color="#7a9ad0"/><feComposite result="composite" operator="in" in2="SourceGraphic"/><feBlend result="blend" in2="SourceGraphic"/></filter></defs><path id="Forma_1" data-name="Forma 1" class="cls-1" d="M7.057 259.209a22.753 22.753 0 0 1 0-32.945l32.935-32.946c9.41-9.413 23.525-9.413 32.935 0l2.353 2.354 129.386 138.841a11.369 11.369 0 0 0 16.468 0l315.234-327.1h2.353c9.41-9.413 23.525-9.413 32.935 0l32.935 32.945c9.41 9.413 9.41 23.532 0 32.945l-376.4 390.638c-4.705 4.706-9.41 7.059-16.467 7.059s-11.763-2.353-16.468-7.059L11.762 266.269z" transform="translate(0 -.375)"/></svg>