<svg xmlns="http://www.w3.org/2000/svg" width="512" height="512" viewBox="0 0 490 490"><path fill="#83abd9" d="M442.7 296.75c-9.8-1.8-18.6-6.4-25.6-12.8l-60.2 98.1c-2.8-.7-5.6-1-8.6-1-20.7 0-37.6 16.8-37.6 37.6 0 20.7 16.8 37.6 37.6 37.6 20.7 0 37.6-16.8 37.6-37.6 0-7.3-2.1-14-5.7-19.8l62.5-102.1zm-94.4 135.8c-7.7 0-13.9-6.2-13.9-13.9s6.2-13.9 13.9-13.9 13.9 6.2 13.9 13.9c.1 7.6-6.2 13.9-13.9 13.9zM75 244.85c0-10.2-4.1-19.5-10.7-26.2l59.7-97.5c-9.3-3.1-17.4-8.8-23.6-16.1l-62.6 102.4h-.3c-20.7-.1-37.5 16.8-37.5 37.5s16.8 37.5 37.6 37.5h.2l62.6 102.3c6.2-7.4 14.3-13 23.6-16.1l-59.7-97.5c6.6-6.8 10.7-16 10.7-26.3zm-37.4 13.9c-7.7 0-13.9-6.2-13.9-13.9-.1-7.6 6.1-13.9 13.9-13.9 7.7 0 13.9 6.2 13.9 13.9s-6.2 13.9-13.9 13.9zm258.1 158.5c0-3.7.4-7.3 1.1-10.9h-120c-.9-2.9-2.1-5.7-3.6-8.3l62-101.3c-9.8-1.8-18.6-6.4-25.6-12.8l-59.3 96.9c-3-.8-6.1-1.2-9.4-1.2-20.7 0-37.6 16.8-37.6 37.6v1.4c0 20.7 16.8 37.5 37.6 37.5 14.9 0 27.7-8.7 33.8-21.2h124.1c-2-5.5-3.1-11.5-3.1-17.7zm-154.8 13.8c-7.5 0-13.5-5.9-13.9-13.2.4-7.4 6.4-13.2 13.9-13.2s13.5 5.9 13.9 13.2c-.4 7.4-6.4 13.2-13.9 13.2zm311.5-223.6c-14.3 0-26.8 8-33.1 19.8H294.6c2 5.5 3.1 11.5 3.1 17.7 0 3.7-.4 7.3-1.1 10.9h119.9c4.7 15.4 19 26.7 35.9 26.7 20.7 0 37.6-16.8 37.6-37.6 0-20.7-16.8-37.5-37.6-37.5zm0 51.5c-7.7 0-13.9-6.2-13.9-13.9s6.2-13.9 13.9-13.9 13.9 6.2 13.9 13.9c.1 7.6-6.2 13.9-13.9 13.9zM296.7 82.25c-.7-3.5-1.1-7.1-1.1-10.9 0-6.2 1.1-12.2 3.1-17.7H174c-6.3-11.8-18.8-19.8-33.1-19.8-20.7 0-37.6 16.8-37.6 37.6 0 20.6 16.8 37.4 37.6 37.4 3 0 5.8-.4 8.6-1l60.1 98.2c7.1-6.4 15.9-11 25.6-12.8l-62.5-102.1c1.7-2.8 3.1-5.8 4.1-9v.1h119.9zm-155.8 2.9c-7.7 0-13.9-6.2-13.9-13.9-.1-7.6 6.2-13.9 13.9-13.9s13.9 6.2 13.9 13.9-6.2 13.9-13.9 13.9z"/><path fill="#83abd9" d="M282.4 245.05c0-10.2-4.1-19.5-10.7-26.2l59.7-97.5c-9.2-3.2-17.3-8.9-23.5-16.2l-62.6 102.3h-.3c-17 0-31.3 11.3-35.9 26.7h-120c.7 3.5 1.1 7.1 1.1 10.9 0 6.2-1.1 12.2-3.1 17.7h124.8c6.3 11.8 18.8 19.8 33.1 19.8h.2l62.6 102.3c6.2-7.4 14.3-13 23.6-16.1l-59.7-97.5c6.6-6.8 10.7-16 10.7-26.2zm-37.4 13.8c-7.7 0-13.9-6.2-13.9-13.9s6.2-13.9 13.9-13.9 13.9 6.2 13.9 13.9c.1 7.7-6.2 13.9-13.9 13.9zm135.1-167.7c3.6-5.8 5.7-12.5 5.7-19.8 0-20.7-16.8-37.6-37.6-37.6-20.7 0-37.6 16.8-37.6 37.6 0 20.7 16.8 37.6 37.6 37.6 3.1-.1 6-.4 8.7-1.1l60.1 98.2c7.1-6.4 15.9-11 25.6-12.8l-62.5-102.1zm-31.8-5.9c-7.7 0-13.9-6.2-13.9-13.9s6.2-13.9 13.9-13.9 13.9 6.2 13.9 13.9-6.2 13.9-13.9 13.9z"/></svg>