<svg xmlns="http://www.w3.org/2000/svg" width="768" height="768"><defs><style>.cls-1{fill:#6fb7ea}.cls-2,.cls-3{fill:#49789a;fill-rule:evenodd}.cls-3{fill:#fff}</style></defs><g id="Монтажная_область_2" data-name="Монтажная область 2"><g id="Logo_копия" data-name="Logo копия"><circle id="Эллипс_1" cx="386" cy="384" r="304" class="cls-1" data-name="Эллипс 1"/><path id="Forma_1_копия" d="M725.3 1253.41c-2.177 12.39-23.375 73.41-86.675 123.02 6.848 4.28 14.76 5.81 22.794 5.81 32.57 0 70.354-23.91 101.048-63.97 22.612-29.51 36.3-63.76 43.156-97.32l-47.318 16.6 51.4-43.34c2.965-29.5.847-57.28-5.093-79.3-18.85 37.73-51.516 57.58-83.324 76.89-14.458 8.78-29.158 17.92-43.035 28.72l-19.673 63.1-2.637-43.12c-25.6 26.95-46.967 61.54-40.737 98.01-3.618 2.53-16.877 11.53-21.911 14.7-14.519-48.58 11.59-96.08 47.427-132.71 21.136-21.6 44.813-35.98 67.7-49.88 38.548-23.41 71.831-43.63 83.312-92.96l6.9-29.66 15.764 26.05c34.748 57.41 30.042 178.01-32.254 259.29-35.365 46.14-80.492 73.69-120.721 73.69-19.129 0-33.054-5.94-44.281-15.83-36.659 22.29-69.774 30.48-103.141 30.8 32.608-16.99 109.084-41.45 211.299-168.59z" class="cls-2" data-name="Forma 1 копия" transform="translate(-322 -871)"/><path id="Forma_1" d="M788 1275c12.018-32.92 10.758-20.49 17.618-54.05l-47.318 16.6 51.4-43.34c2.965-29.5.847-57.28-5.093-79.3-21.144 46.83-72.794 69.77-104.6 89.09 9.569-2.83-4.785-25.97-7.528-22.85 54.492-33.94 87.775-54.16 99.256-103.49l6.9-29.66 15.764 26.05c19.834 25.67 35.264 114.98 2.611 198.95" class="cls-3" data-name="Forma 1" transform="translate(-322 -871)"/></g></g></svg>