<svg xmlns="http://www.w3.org/2000/svg" width="612" height="612"><defs><style>.cls-1{fill-rule:evenodd;filter:url(#filter)}</style><filter id="filter" x="0" y="0" width="612.031" height="612.031" filterUnits="userSpaceOnUse"><feFlood result="flood" flood-color="#c4c4c4"/><feComposite result="composite" operator="in" in2="SourceGraphic"/><feBlend result="blend" in2="SourceGraphic"/></filter></defs><path id="Forma_1" data-name="Forma 1" class="cls-1" d="M597.029 524.7L464.074 391.749c-.707-.707-1.536-1.2-2.274-1.858a250.375 250.375 0 0 0 41.43-138.273C503.23 112.652 390.578 0 251.615 0S0 112.652 0 251.615 112.65 503.23 251.613 503.23a250.366 250.366 0 0 0 138.273-41.43c.658.736 1.149 1.565 1.856 2.271L524.7 597.029a51.144 51.144 0 0 0 72.329-72.329zM251.615 416A164.389 164.389 0 1 1 416 251.615 164.388 164.388 0 0 1 251.615 416z"/></svg>