<svg xmlns="http://www.w3.org/2000/svg" xmlns:xlink="http://www.w3.org/1999/xlink" width="58" height="59" viewBox="0 0 58 59">
  <metadata><?xpacket begin="﻿" id="W5M0MpCehiHzreSzNTczkc9d"?>
<x:xmpmeta xmlns:x="adobe:ns:meta/" x:xmptk="Adobe XMP Core 5.6-c138 79.159824, 2016/09/14-01:09:01        ">
   <rdf:RDF xmlns:rdf="http://www.w3.org/1999/02/22-rdf-syntax-ns#">
      <rdf:Description rdf:about=""/>
   </rdf:RDF>
</x:xmpmeta>
                                                                                                    
                                                                                                    
                                                                                                    
                                                                                                    
                                                                                                    
                                                                                                    
                                                                                                    
                                                                                                    
                                                                                                    
                                                                                                    
                                                                                                    
                                                                                                    
                                                                                                    
                                                                                                    
                                                                                                    
                                                                                                    
                                                                                                    
                                                                                                    
                                                                                                    
                                                                                                    
                           
<?xpacket end="w"?></metadata>
<defs>
    <style>
      .cls-1 {
        fill-rule: evenodd;
        filter: url(#filter);
      }
    </style>
    <filter id="filter" x="1" y="0" width="59" height="59" filterUnits="userSpaceOnUse">
      <feFlood result="flood" flood-color="#76a2e3"/>
      <feComposite result="composite" operator="in" in2="SourceGraphic"/>
      <feBlend result="blend" in2="SourceGraphic"/>
    </filter>
  </defs>
  <path id="Forma_1" data-name="Forma 1" class="cls-1" d="M47.624,59H3.346A2.336,2.336,0,0,1,1,56.673V12.629A2.337,2.337,0,0,1,3.346,10.3H47.624a2.338,2.338,0,0,1,2.344,2.331V56.673A2.338,2.338,0,0,1,47.624,59ZM5.689,54.342H45.28V14.959H5.689V54.342ZM57.657,48.7H52.9a2.331,2.331,0,1,1,0-4.661h2.414V4.66H15.721V7.253a2.343,2.343,0,0,1-4.686,0V2.329A2.337,2.337,0,0,1,13.379,0H57.657A2.336,2.336,0,0,1,60,2.329V46.374A2.336,2.336,0,0,1,57.657,48.7Z" transform="translate(-1)"/>
</svg>
