<svg xmlns="http://www.w3.org/2000/svg" xmlns:xlink="http://www.w3.org/1999/xlink" width="304" height="408" viewBox="0 0 304 408">
  <metadata><?xpacket begin="﻿" id="W5M0MpCehiHzreSzNTczkc9d"?>
<x:xmpmeta xmlns:x="adobe:ns:meta/" x:xmptk="Adobe XMP Core 5.6-c138 79.159824, 2016/09/14-01:09:01        ">
   <rdf:RDF xmlns:rdf="http://www.w3.org/1999/02/22-rdf-syntax-ns#">
      <rdf:Description rdf:about=""/>
   </rdf:RDF>
</x:xmpmeta>
                                                                                                    
                                                                                                    
                                                                                                    
                                                                                                    
                                                                                                    
                                                                                                    
                                                                                                    
                                                                                                    
                                                                                                    
                                                                                                    
                                                                                                    
                                                                                                    
                                                                                                    
                                                                                                    
                                                                                                    
                                                                                                    
                                                                                                    
                                                                                                    
                                                                                                    
                                                                                                    
                           
<?xpacket end="w"?></metadata>
<defs>
    <style>
      .cls-1 {
        fill-rule: evenodd;
        filter: url(#filter);
      }
    </style>
    <filter id="filter" x="0" y="0" width="304" height="408" filterUnits="userSpaceOnUse">
      <feFlood result="flood" flood-color="#76a2e3"/>
      <feComposite result="composite" operator="in" in2="SourceGraphic"/>
      <feBlend result="blend" in2="SourceGraphic"/>
    </filter>
  </defs>
  <path id="Forma_1" data-name="Forma 1" class="cls-1" d="M35.678,388.325A20.531,20.531,0,0,0,56.186,408H247.813a20.532,20.532,0,0,0,20.51-19.676L282.007,99.35H21.993Zm159.671-217.2a8.338,8.338,0,0,1,8.336-8.339h13.337a8.338,8.338,0,0,1,8.336,8.339v165.1a8.338,8.338,0,0,1-8.336,8.34H203.685a8.338,8.338,0,0,1-8.336-8.34v-165.1Zm-58.353,0a8.338,8.338,0,0,1,8.337-8.339h13.335A8.338,8.338,0,0,1,167,171.126v165.1a8.338,8.338,0,0,1-8.336,8.34H145.333a8.338,8.338,0,0,1-8.337-8.34v-165.1h0Zm-58.355,0a8.338,8.338,0,0,1,8.337-8.339h13.336a8.339,8.339,0,0,1,8.337,8.339v165.1a8.339,8.339,0,0,1-8.337,8.34H86.978a8.338,8.338,0,0,1-8.337-8.34v-165.1ZM291.119,21.017h-88.4V4.3a4.3,4.3,0,0,0-4.3-4.3H105.582a4.3,4.3,0,0,0-4.3,4.3V21.016H12.879A12.883,12.883,0,0,0,0,33.9V74.381H304V33.9A12.882,12.882,0,0,0,291.119,21.017Z"/>
</svg>
