<svg xmlns="http://www.w3.org/2000/svg" xmlns:xlink="http://www.w3.org/1999/xlink" width="511.781" height="511.75" viewBox="0 0 511.781 511.75">
  <metadata><?xpacket begin="﻿" id="W5M0MpCehiHzreSzNTczkc9d"?>
<x:xmpmeta xmlns:x="adobe:ns:meta/" x:xmptk="Adobe XMP Core 5.6-c138 79.159824, 2016/09/14-01:09:01        ">
   <rdf:RDF xmlns:rdf="http://www.w3.org/1999/02/22-rdf-syntax-ns#">
      <rdf:Description rdf:about=""/>
   </rdf:RDF>
</x:xmpmeta>
                                                                                                    
                                                                                                    
                                                                                                    
                                                                                                    
                                                                                                    
                                                                                                    
                                                                                                    
                                                                                                    
                                                                                                    
                                                                                                    
                                                                                                    
                                                                                                    
                                                                                                    
                                                                                                    
                                                                                                    
                                                                                                    
                                                                                                    
                                                                                                    
                                                                                                    
                                                                                                    
                           
<?xpacket end="w"?></metadata>
<defs>
    <style>
      .cls-1 {
        fill-rule: evenodd;
        filter: url(#filter);
      }
    </style>
    <filter id="filter" x="0" y="0.25" width="511.781" height="511.75" filterUnits="userSpaceOnUse">
      <feFlood result="flood" flood-color="#76a2e3"/>
      <feComposite result="composite" operator="in" in2="SourceGraphic"/>
      <feBlend result="blend" in2="SourceGraphic"/>
    </filter>
  </defs>
  <path id="Forma_1" data-name="Forma 1" class="cls-1" d="M493.045,154.688l-22.614,22.63L334.714,41.618l22.614-22.63a63.984,63.984,0,0,1,90.488,0l45.228,45.244A64,64,0,0,1,493.045,154.688ZM176.384,426.073A15.991,15.991,0,1,0,199,448.687L447.817,199.932,425.171,177.3ZM63.282,313A15.991,15.991,0,1,0,85.9,335.617L334.714,86.846,312.1,64.232ZM357.3,109.445L108.511,358.231a31.981,31.981,0,1,0,45.259,45.2L402.556,154.689ZM153.708,471.239c-7.652-7.653-11.339-17.367-12.713-27.362a64.786,64.786,0,0,1-9.87.969,62.5,62.5,0,0,1-63.064-73.184,47.425,47.425,0,0,1-27.392-13.431c-0.719-.718-0.969-1.688-1.624-2.467L0,512l155.831-39.013C155.144,472.363,154.364,471.9,153.708,471.239Z" transform="translate(0 -0.25)"/>
</svg>
