<svg xmlns="http://www.w3.org/2000/svg" width="512" height="512" viewBox="0 0 317.974 317.974">
    <path fill="#83abd9" d="M304.777 222.368V0H13.191v222.375l-7.622 95.599h306.836l-7.628-95.606zM19.489 305.12l6.523-81.736.045-.501V12.854h265.865v210.035l.045.501 6.523 81.736H19.489v-.006zM242.668 49.532c0 3.541-1.555 6.69-3.985 8.888-2.783 40.772-36.749 73.105-78.202 73.105-41.074 0-74.815-31.736-78.131-71.968-3.252-2.153-5.405-5.836-5.405-10.032 0-6.639 5.379-12.025 12.025-12.025 6.639 0 12.018 5.386 12.018 12.025 0 3.291-1.33 6.273-3.47 8.438 2.519 32.571 29.756 58.317 62.964 58.317 32.828 0 59.866-25.155 62.906-57.205-2.892-2.198-4.788-5.636-4.788-9.557 0-6.639 5.386-12.031 12.031-12.031 6.651.014 12.037 5.406 12.037 12.045z"/>
</svg>
