<?xml version="1.0" encoding="utf-8"?>
<!-- Generator: Adobe Illustrator 21.0.0, SVG Export Plug-In . SVG Version: 6.00 Build 0)  -->
<svg version="1.1" id="Shape_1_1_" xmlns="http://www.w3.org/2000/svg" xmlns:xlink="http://www.w3.org/1999/xlink" x="0px" y="0px"
	 viewBox="0 0 800 800" style="enable-background:new 0 0 800 800;" xml:space="preserve">
<style type="text/css">
	.st0{fill-rule:evenodd;clip-rule:evenodd;fill:#83ABD9;}
</style>
<g id="Shape_1">
	<g>
		<path class="st0" d="M759.7,316l-56.1-9.5c-5.8-18.9-13.4-37.1-22.6-54.5l33.1-46.3c14-19.7,11.9-46.6-5.3-63.7L659,92.2
			c-9.4-9.4-21.7-14.5-34.9-14.5c-10.4,0-20.2,3.2-28.6,9.2L549.1,120c-18-9.5-36.9-17.4-56.5-23.2l-9.4-55.5
			C479.3,17.4,458.7,0,434.5,0h-70.3c-24.2,0-44.8,17.4-48.8,41.3l-9.7,56.8c-18.7,5.8-36.9,13.5-54.3,22.9l-45.9-33.1
			c-8.4-6-18.4-9.2-28.7-9.2c-13.2,0-25.7,5.2-34.9,14.5l-49.9,49.8c-17,17-19.4,44-5.3,63.7l33.4,47c-9.2,17.5-16.5,35.8-22.2,54.6
			l-55.5,9.4C18.4,321.7,1,342.3,1,366.5v70.4c0,24.2,17.4,44.8,41.3,48.8l56.8,9.7c5.8,18.7,13.5,36.9,22.9,54.3L89,595.4
			c-14,19.7-11.9,46.6,5.3,63.7l49.8,49.8c9.4,9.4,21.7,14.5,34.9,14.5c10.4,0,20.2-3.2,28.6-9.2l46.9-33.4
			c16.9,8.9,34.6,16,52.8,21.7l9.4,56.2c4,23.9,24.6,41.3,48.8,41.3H436c24.2,0,44.8-17.4,48.8-41.3l9.5-56.2
			c18.9-5.8,37.1-13.4,54.5-22.6l46.3,33.1c8.4,6,18.4,9.2,28.7,9.2c13.2,0,25.6-5.2,34.9-14.5l49.8-49.8c17-17,19.4-44,5.3-63.7
			l-33.1-46.5c9.2-17.5,16.9-35.8,22.6-54.5l56.1-9.4c23.9-4,41.3-24.6,41.3-48.8v-70.4C801,340.6,783.6,320,759.7,316z
			 M756.1,435.2h-0.2c0,2.2-1.5,4-3.7,4.3l-70.2,11.7c-8.9,1.5-15.9,8-18,16.5c-6.3,24.6-16,48.1-29.1,70c-4.5,7.7-4.2,17.2,1,24.6
			l41.3,58.2c1.2,1.7,1,4.2-0.5,5.7L626.9,676c-1.2,1.2-2.3,1.3-3.2,1.3c-1,0-1.8-0.3-2.5-0.8l-58-41.3c-7.2-5.2-16.9-5.5-24.6-1
			c-21.9,13-45.4,22.7-70,29.1c-8.7,2.2-15.2,9.4-16.5,18l-11.9,70.2c-0.3,2.2-2.2,3.7-4.3,3.7h-70.3c-2.2,0-4-1.5-4.3-3.7
			l-11.7-70.2c-1.5-8.9-8-15.9-16.5-18c-23.9-6.2-46.9-15.7-68.5-28.1c-3.5-2-7.5-3-11.4-3c-4.5,0-9.2,1.3-13,4.2L181.7,678
			c-0.8,0.5-1.7,0.8-2.5,0.8c-0.7,0-2-0.2-3.2-1.3l-49.8-49.8c-1.5-1.5-1.7-3.8-0.5-5.7l41.1-57.7c5.2-7.4,5.5-17,1-24.7
			c-13-21.7-23.1-45.3-29.4-69.9c-2.3-8.5-9.4-15-18-16.5l-70.7-12c-2.2-0.3-3.7-2.2-3.7-4.3v-70.4c0-2.2,1.5-4,3.7-4.3l69.7-11.7
			c8.9-1.5,16-8,18.2-16.7c6.2-24.6,15.7-48.3,28.6-70.2c4.5-7.7,4-17.2-1.2-24.4l-41.6-58.5c-1.2-1.7-1-4.2,0.5-5.7l49.8-49.8
			c1.2-1.2,2.3-1.3,3.2-1.3c1,0,1.8,0.3,2.5,0.8l57.6,41.1c7.3,5.2,17,5.5,24.7,1c21.7-13,45.3-23.1,69.8-29.4
			c8.5-2.3,15-9.4,16.5-18l12-70.7c0.3-2.2,2.2-3.7,4.3-3.7h70.3c2.2,0,4,1.5,4.3,3.7l11.7,69.7c1.5,8.9,8,16,16.7,18.2
			c25.2,6.4,49.3,16.2,71.7,29.4c7.7,4.5,17.2,4.2,24.6-1l57.6-41.4c0.8-0.5,1.7-0.8,2.5-0.8c0.7,0,2,0.2,3.2,1.3l49.8,49.8
			c1.5,1.5,1.7,3.8,0.5,5.7l-41.3,58c-5.2,7.2-5.5,16.9-1,24.6c13,21.9,22.7,45.5,29.1,70c2.2,8.7,9.4,15.2,18,16.5l70.2,11.9
			c2.2,0.3,3.7,2.2,3.7,4.3V435.2z M400.9,227.3c-95.2,0-172.6,77.4-172.6,172.6c0,95.3,77.3,172.6,172.6,172.6
			c95.2,0,172.6-77.4,172.6-172.6C573.5,304.7,496.1,227.3,400.9,227.3z M400.9,527.4c-70.3,0-127.5-57.2-127.5-127.5
			s57.1-127.5,127.5-127.5s127.5,57.2,127.5,127.5S471.2,527.4,400.9,527.4z"/>
	</g>
</g>
</svg>
