<svg xmlns="http://www.w3.org/2000/svg" width="512" height="512" viewBox="0 0 480 480">
    <path fill="#83abd9" d="M471.998 0h-80a8 8 0 0 0-5.656 13.656l9.976 9.976-125.976 111.16-99.472-38.256a8.004 8.004 0 0 0-7.864 1.216l-160 128a8.024 8.024 0 0 0-2.992 5.808 7.98 7.98 0 0 0 2.336 6.104l48 48A7.978 7.978 0 0 0 55.998 288c1.8 0 3.592-.6 5.08-1.824l115.792-95.072 100.144 40.312a8.004 8.004 0 0 0 8.368-1.504L455.734 75.04l10.608 10.608a8.005 8.005 0 0 0 8.72 1.736A7.985 7.985 0 0 0 479.998 80V8c0-4.424-3.584-8-8-8zm-8 60.688l-2.344-2.344a7.983 7.983 0 0 0-11.04-.264l-172.28 156.624-99.888-40.208a7.991 7.991 0 0 0-8.064 1.24L56.526 269.208l-36.552-36.544 149.44-119.544 99.712 38.352c2.768 1.08 5.928.496 8.168-1.472l136-120a8.023 8.023 0 0 0 2.704-5.752 7.982 7.982 0 0 0-2.336-5.904L411.31 16h52.688v44.688zM15.998 288h16v192h-16zM63.998 304h16v176h-16z"/>
    <path fill="#83abd9" d="M111.998 264h16v216h-16zM159.998 224h16v256h-16zM207.998 232h16v248h-16zM255.998 248h16v232h-16zM303.998 240h16v240h-16zM351.998 192h16v288h-16zM399.998 152h16v328h-16zM447.998 104h16v376h-16z"/>
</svg>
